<svg width="135" height="135" viewBox="0 0 135 135" fill="none" xmlns="http://www.w3.org/2000/svg">
<rect width="135" height="135" rx="67.5" fill="#EDDD5E"/>
<g clip-path="url(#clip0_229_239)">
<path d="M78.3 71.8998L68.2 81.9998C68 82.1998 67.7667 82.2998 67.5 82.2998C67.2333 82.2998 67 82.1998 66.8 81.9998L56.7 71.8998C56.5667 71.7665 56.5 71.5665 56.5 71.2998C56.5 71.0331 56.5833 70.7998 56.75 70.5998C56.9167 70.3998 57.1333 70.2998 57.4 70.2998C57.6667 70.2998 57.9 70.3998 58.1 70.5998L66.6 79.0998V53.1998C66.6 52.9331 66.6833 52.7165 66.85 52.5498C67.0167 52.3831 67.2333 52.2998 67.5 52.2998C67.7667 52.2998 67.9833 52.3831 68.15 52.5498C68.3167 52.7165 68.4 52.9331 68.4 53.1998V79.0998L76.9 70.5998C77.1 70.3998 77.3333 70.2998 77.6 70.2998C77.8667 70.2998 78.0833 70.3998 78.25 70.5998C78.4167 70.7998 78.5 71.0331 78.5 71.2998C78.5 71.5665 78.4333 71.7665 78.3 71.8998Z" fill="#404A3D"/>
</g>
<defs>
<clipPath id="clip0_229_239">
<rect width="30" height="30" fill="white" transform="matrix(1 0 0 -1 52.5 82.2998)"/>
</clipPath>
</defs>
</svg>
