<svg xmlns="http://www.w3.org/2000/svg" viewBox="0 0 100 100" fill="#FBF7EE"><path d="M67.1 75.4v9c0 .6-.4 1-1 1s-1-.4-1-1v-9c0-1.6-.7-3.1-1.9-4.1-8-6.6-16.8-11-18.4-11.8-.5-.3-.9-.8-.9-1.4V45.4c0-.3.2-.6.4-.8 1.4-.9 2.2-2.4 2.2-4.1V27.4c0-6-4.8-10.8-10.8-10.8h-2.8c-6 0-10.8 4.8-10.8 10.8v13.1c0 1.6.8 3.2 2.2 4.1.3.2.4.5.4.8V58c0 .6-.3 1.2-.9 1.4-1.7.8-10.4 5.2-18.4 11.8-1.2 1-1.9 2.5-1.9 4.1v9c0 .6-.4 1-1 1s-1-.4-1-1v-9c0-2.2 1-4.3 2.7-5.7 7.9-6.5 16.4-10.9 18.6-12V45.9c-1.7-1.3-2.6-3.3-2.6-5.4V27.4c0-7.1 5.7-12.8 12.8-12.8h2.8c7.1 0 12.8 5.7 12.8 12.8v13.1c0 2.1-1 4.1-2.6 5.4v11.9c2.2 1.1 10.7 5.5 18.6 12 1.5 1.3 2.5 3.4 2.5 5.6zm29.2-3.1c-6.3-5.2-13.2-8.8-15.1-9.7v-9.5c1.4-1.1 2.1-2.7 2.1-4.5V38c0-5.8-4.8-10.6-10.6-10.6h-2.3c-5.8 0-10.6 4.8-10.6 10.6v10.7c0 1.8.8 3.4 2.1 4.5v7.2c0 .6.4 1 1 1s1-.4 1-1v-7.7c0-.3-.2-.6-.4-.8-1.1-.7-1.7-1.9-1.7-3.2V38c0-4.7 3.9-8.6 8.6-8.6h2.3c4.7 0 8.6 3.9 8.6 8.6v10.7c0 1.3-.6 2.5-1.7 3.2-.3.2-.4.5-.4.8V63c0 .6.3 1.1.8 1.3 1.4.7 8.5 4.2 15 9.6 1 .8 1.5 2 1.5 3.2v7.3c0 .6.4 1 1 1s1-.4 1-1v-7.3c.1-1.9-.7-3.6-2.2-4.8z"/></svg>