<svg width="85" height="85" viewBox="0 0 85 85" fill="none" xmlns="http://www.w3.org/2000/svg">
<rect width="85" height="85" rx="42.5" fill="#EDDD5E"/>
<path d="M29.1425 54.153H26.4936C26.0802 54.153 25.728 54.0027 25.4368 53.7021C25.1456 53.4015 25 53.0446 25 52.6313V41.2182C25 40.8049 25.1456 40.4527 25.4368 40.1615C25.728 39.8703 26.0802 39.7247 26.4936 39.7247H29.1425C29.5558 39.7247 29.9128 39.8703 30.2134 40.1615C30.514 40.4527 30.6643 40.8049 30.6643 41.2182V52.6313C30.6643 53.0634 30.5187 53.425 30.2275 53.7162C29.9363 54.0074 29.5746 54.153 29.1425 54.153ZM26.4936 40.711C26.3621 40.711 26.2493 40.7626 26.1554 40.866C26.0615 40.9693 26.0145 41.0867 26.0145 41.2182V52.6313C26.0145 52.7628 26.0615 52.8802 26.1554 52.9835C26.2493 53.0869 26.3621 53.1385 26.4936 53.1385H29.1425C29.274 53.1385 29.3914 53.0869 29.4948 52.9835C29.5981 52.8802 29.6498 52.7628 29.6498 52.6313V41.2182C29.6498 41.0867 29.5981 40.9693 29.4948 40.866C29.3914 40.7626 29.274 40.711 29.1425 40.711H26.4936ZM46.5298 49.1369H37.8784C37.7469 49.1369 37.6295 49.0852 37.5262 48.9819C37.4228 48.8786 37.3712 48.7612 37.3712 48.6297C37.3712 48.4982 37.4228 48.3807 37.5262 48.2774C37.6295 48.1741 37.7469 48.1224 37.8784 48.1224H46.5298C46.7928 48.16 47.0464 48.1224 47.2907 48.0097C47.5349 47.897 47.7322 47.7279 47.8824 47.5024C48.0327 47.277 48.1079 47.0281 48.1079 46.7557C48.1079 46.4833 48.0327 46.2343 47.8824 46.0089C47.7322 45.7834 47.5349 45.6144 47.2907 45.5016C47.0464 45.3889 46.7928 45.3513 46.5298 45.3889H43.4581C42.9133 45.3889 42.392 45.2809 41.8941 45.0648C41.3963 44.8488 40.9736 44.5388 40.626 44.1349C40.2784 43.731 39.8651 43.421 39.3861 43.2049C38.907 42.9889 38.4045 42.8809 37.8784 42.8809H30.157C30.0255 42.8809 29.9081 42.8292 29.8048 42.7259C29.7014 42.6226 29.6498 42.5051 29.6498 42.3736C29.6498 42.2421 29.7014 42.1247 29.8048 42.0214C29.9081 41.918 30.0255 41.8664 30.157 41.8664H37.8784C38.5547 41.8664 39.1982 42.0026 39.8088 42.275C40.4193 42.5474 40.9407 42.9372 41.3728 43.4445C41.6358 43.7451 41.9505 43.9799 42.3168 44.149C42.6832 44.3181 43.0636 44.4026 43.4581 44.4026H46.5298C47.1873 44.4026 47.7462 44.6327 48.2065 45.093C48.6668 45.5533 48.8969 46.1122 48.8969 46.7698C48.8969 47.4273 48.6668 47.9862 48.2065 48.4465C47.7462 48.9068 47.1873 49.1369 46.5298 49.1369ZM42.4155 55.5902C41.1567 55.5902 39.945 55.3648 38.7802 54.9139L29.9879 51.7013C29.8564 51.6637 29.7625 51.5792 29.7061 51.4477C29.6498 51.3162 29.6404 51.1847 29.6779 51.0532C29.7155 50.9217 29.8001 50.8277 29.9316 50.7714C30.0631 50.715 30.1946 50.7056 30.3261 50.7432L39.1465 53.9839C40.3677 54.4536 41.6311 54.6509 42.9368 54.5757C44.2425 54.5006 45.4777 54.153 46.6425 53.533L58.8728 47.0516C58.2904 46.5067 57.6141 46.1545 56.8438 45.9948C56.0735 45.8351 55.3127 45.8868 54.5612 46.1498L48.0515 48.5451C47.9388 48.5639 47.8261 48.5451 47.7134 48.4888C47.6006 48.4324 47.5208 48.3479 47.4738 48.2351C47.4269 48.1224 47.4222 48.005 47.4597 47.8829C47.4973 47.7608 47.5725 47.6715 47.6852 47.6152L54.223 45.2198C55.1624 44.8817 56.1252 44.8206 57.1115 45.0367C58.0978 45.2527 58.9479 45.7177 59.6618 46.4316L59.7746 46.5443C59.9249 46.6946 60 46.8825 60 47.1079C60 47.3334 59.9249 47.5212 59.7746 47.6715C59.7182 47.7279 59.6524 47.7749 59.5773 47.8124L47.1216 54.4348C45.6562 55.2051 44.0875 55.5902 42.4155 55.5902ZM52.4195 46.7698C52.4195 46.7698 52.4101 46.7698 52.3913 46.7698C52.241 46.7698 52.1189 46.7134 52.025 46.6007C51.931 46.488 51.8934 46.3564 51.9122 46.2062C51.9498 45.9056 51.9686 45.6801 51.9686 45.5298C51.9874 44.5717 51.7901 43.6652 51.3768 42.8104C50.9635 41.9556 50.3858 41.2323 49.6437 40.6405C48.9016 40.0487 48.0562 39.6542 47.1075 39.457C46.1587 39.2597 45.2288 39.2785 44.3176 39.5133C43.4065 39.7482 42.5845 40.1709 41.8519 40.7814C41.1192 41.392 40.5649 42.1388 40.1892 43.0218C40.1328 43.2284 40.0013 43.3458 39.7947 43.374C39.588 43.4022 39.4236 43.3318 39.3015 43.1627C39.1794 42.9936 39.1653 42.8151 39.2593 42.6272L39.2874 42.5991C39.7383 41.5846 40.3865 40.7345 41.2319 40.0487C42.0773 39.363 43.0307 38.8887 44.0922 38.6256C45.1537 38.3626 46.2245 38.3485 47.3048 38.5834C48.385 38.8182 49.3525 39.2691 50.2073 39.936C51.0621 40.603 51.7338 41.4249 52.2222 42.4018C52.7107 43.3787 52.9549 44.4214 52.9549 45.5298L52.9267 46.2907C52.9267 46.4222 52.8751 46.5349 52.7717 46.6289C52.6684 46.7228 52.551 46.7698 52.4195 46.7698ZM46.0789 39.3865H46.0225C45.891 39.3677 45.783 39.3067 45.6985 39.2033C45.6139 39.1 45.5717 38.9826 45.5717 38.8511C45.8159 34.9622 46.8116 31.9939 48.5588 29.9461C49.5545 28.7437 50.7944 27.9077 52.2786 27.438C52.4101 27.4193 52.5275 27.4427 52.6308 27.5085C52.7342 27.5742 52.8093 27.6682 52.8563 27.7903C52.9032 27.9124 52.8986 28.0298 52.8422 28.1425C52.7858 28.2553 52.7013 28.3398 52.5886 28.3962C51.2923 28.8095 50.2026 29.5422 49.3196 30.5942C47.7415 32.4729 46.821 35.244 46.558 38.9074C46.558 39.0389 46.511 39.1517 46.4171 39.2456C46.3231 39.3395 46.2104 39.3865 46.0789 39.3865ZM43.599 36.2303C42.8663 36.2303 42.1524 36.0988 41.4573 35.8358C40.5743 35.4788 39.8088 34.9528 39.1606 34.2577C38.5125 33.5626 38.0475 32.7641 37.7657 31.8624C37.7281 31.7496 37.7281 31.6322 37.7657 31.5101C37.8033 31.388 37.8784 31.2987 37.9911 31.2424C38.799 30.7351 39.682 30.4392 40.6401 30.3547C41.5982 30.2702 42.5235 30.4017 43.4159 30.7492C44.3082 31.0968 45.0785 31.6181 45.7267 32.3132C46.3748 33.0084 46.8398 33.8162 47.1216 34.7367C47.1592 34.8495 47.1592 34.9669 47.1216 35.089C47.084 35.2111 47.0089 35.3004 46.8961 35.3567C45.8816 35.9391 44.7826 36.2303 43.599 36.2303ZM38.8647 31.9187C39.1841 32.7829 39.7008 33.5015 40.4147 34.0745C41.1286 34.6475 41.9317 35.0092 42.8241 35.1595C43.7165 35.3097 44.5947 35.2252 45.4589 34.9058C45.6468 34.8495 45.8347 34.7743 46.0225 34.6804C45.7783 34.0416 45.4261 33.4733 44.9658 32.9755C44.5055 32.4776 43.9607 32.0878 43.3313 31.806C42.702 31.5242 42.0491 31.3739 41.3728 31.3551C40.6965 31.3363 40.0389 31.449 39.4002 31.6933C39.2123 31.7496 39.0338 31.8248 38.8647 31.9187ZM51.4614 34.0322C50.6911 34.0135 49.9631 33.8397 49.2774 33.5109C48.5917 33.1821 48.014 32.7172 47.5443 32.116C47.4691 32.022 47.4316 31.914 47.4316 31.7919C47.4316 31.6698 47.4691 31.5618 47.5443 31.4678C48.014 30.8666 48.5917 30.4017 49.2774 30.0729C49.9631 29.7441 50.6911 29.5704 51.4614 29.5516H51.4895C52.2598 29.5704 52.9878 29.7441 53.6735 30.0729C54.3592 30.4017 54.9369 30.8666 55.4066 31.4678C55.4817 31.5618 55.5193 31.6651 55.5193 31.7778C55.5193 31.8905 55.4817 31.9939 55.4066 32.0878C54.9369 32.689 54.3592 33.1586 53.6735 33.4968C52.9878 33.835 52.2598 34.0135 51.4895 34.0322H51.4614ZM48.6151 31.806C48.9909 32.1817 49.423 32.4776 49.9114 32.6937C50.3999 32.9097 50.9165 33.0177 51.4614 33.0177H51.4895C52.0344 33.0177 52.551 32.9097 53.0395 32.6937C53.5279 32.4776 53.96 32.1723 54.3357 31.7778C53.96 31.3833 53.5279 31.078 53.0395 30.8619C52.551 30.6459 52.0344 30.5379 51.4895 30.5379H51.4614C50.9165 30.5567 50.3999 30.6741 49.9114 30.8901C49.423 31.1062 48.9909 31.4115 48.6151 31.806Z" fill="#404A3D"/>
</svg>
