<?xml version="1.0" encoding="UTF-8"?>
<svg id="Layer_1" xmlns="http://www.w3.org/2000/svg" version="1.1" viewBox="0 0 133.3 187.1">
  <!-- Generator: Adobe Illustrator 29.0.1, SVG Export Plug-In . SVG Version: 2.1.0 Build 192)  -->
  <defs>
    <style>
      .st0 {
        fill: #fff;
      }

      .st0, .st1 {
        fill-rule: evenodd;
      }

      .st1 {
        fill: #169a3b;
      }
    </style>
  </defs>
  <polygon class="st1" points="133.6 143.9 133.6 26.8 .3 26.8 .3 143.9 133.6 143.9"/>
  <polygon class="st1" points="133.6 187.1 133.6 184.4 .3 184.4 .3 187.1 133.6 187.1"/>
  <polygon class="st1" points="133.7 2.7 133.7 0 .3 0 .3 2.7 133.7 2.7"/>
  <path class="st1" d="M9.1,12.8c-.9-1-1.7-1.4-2.8-1.4-2.1,0-3.7,1.9-3.7,4.3s1.6,4.3,3.8,4.3,1.8-.4,2.7-1.4v2.9c-1,.5-1.8.7-2.8.7-3.4,0-6-2.9-6-6.6s2.7-6.6,6-6.6,1.8.2,2.7.8v2.9h0Z"/>
  <polygon class="st1" points="23.7 11.5 23.7 14.3 27.6 14.3 27.6 16.4 23.7 16.4 23.7 19.8 27.8 19.8 27.8 22 21.5 22 21.5 9.4 27.8 9.4 27.8 11.5 23.7 11.5"/>
  <path class="st1" d="M42.5,15.2v-3.8h.7c1.4,0,2.1.6,2.1,1.9s-.8,1.9-2.2,1.9h-.7ZM45,16.7c1.7-.4,2.6-1.6,2.6-3.6s-1.5-3.7-4-3.7h-3.3v12.6h2.2v-5.1h.3l3.1,5.1h2.7l-3.6-5.3h0Z"/>
  <polygon class="st1" points="61.8 22 61.8 11.5 59.3 11.5 59.3 9.4 66.6 9.4 66.6 11.5 64 11.5 64 22 61.8 22"/>
  <polygon class="st1" points="80.6 22 78.4 22 78.4 9.4 80.6 9.4 80.6 22"/>
  <polygon class="st1" points="95.8 11.5 95.8 14.3 99.4 14.3 99.4 16.4 95.8 16.4 95.8 22 93.6 22 93.6 9.4 99.6 9.4 99.6 11.5 95.8 11.5"/>
  <polygon class="st1" points="114.1 22 111.9 22 111.9 9.4 114.1 9.4 114.1 22"/>
  <path class="st1" d="M129.3,11.5v2.8h3.9v2.1h-3.9v3.4h4.1v2.1h-6.3v-12.6h6.3v2.1h-4.1ZM130.1,8.2l-.9-.9,2.3-2.5,1.4,1.3-2.8,2.2h0Z"/>
  <path class="st1" d="M6.9,156.4h-3.2l1.7-4.5,1.6,4.5h0ZM7.6,158.4l1,2.7h2.4l-4.8-12.9h-1.7l-4.9,12.9H2l1-2.7h4.6Z"/>
  <path class="st1" d="M25.8,154.3v.4c0,4.1-2.1,6.6-5.5,6.6s-6-2.7-6-6.5,2.5-6.6,6-6.6,3.8,1,4.9,3l-1.9,1.2c-.7-1.2-1.7-1.9-3-1.9-2.1,0-3.7,1.9-3.7,4.4s1.6,4.3,3.7,4.3,2.8-1.1,3-2.7h-2.7v-2.1h5.2Z"/>
  <path class="st1" d="M33,154.2v-3.8h.7c1.4,0,2.1.6,2.1,1.9s-.8,1.9-2.2,1.9h-.6ZM35.5,155.7c1.7-.4,2.6-1.6,2.6-3.6s-1.5-3.7-4-3.7h-3.3v12.6h2.2v-5.1h.3l3.1,5.1h2.7l-3.6-5.3h0Z"/>
  <polygon class="st1" points="45.8 161 43.6 161 43.6 148.4 45.8 148.4 45.8 161"/>
  <path class="st1" d="M59.6,151.8c-.9-1-1.7-1.4-2.8-1.4-2.1,0-3.7,1.9-3.7,4.3s1.6,4.3,3.8,4.3,1.8-.4,2.7-1.4v2.9c-1,.5-1.8.7-2.8.7-3.4,0-6-2.9-6-6.6s2.7-6.6,6-6.6,1.8.2,2.7.8v2.9h0Z"/>
  <path class="st1" d="M66.8,155.6c0,1.3,0,1.7.4,2.2.4.7,1.1,1.2,2,1.2s1.6-.5,2-1.2c.3-.5.4-1,.4-2.2v-7.2h2.2v7.7c0,1.5-.3,2.5-.8,3.4-.8,1.1-2.2,1.8-3.7,1.8s-2.9-.7-3.7-1.8c-.6-.9-.8-1.9-.8-3.4v-7.7h2.2v7.2h0Z"/>
  <polygon class="st1" points="81.5 158.9 85 158.9 85 161 79.3 161 79.3 148.4 81.5 148.4 81.5 158.9"/>
  <polygon class="st1" points="90.2 161 90.2 150.6 87.7 150.6 87.7 148.4 95 148.4 95 150.6 92.4 150.6 92.4 161 90.2 161"/>
  <path class="st1" d="M101.6,155.6c0,1.3,0,1.7.4,2.2.4.7,1.1,1.2,2,1.2s1.6-.5,2-1.2c.3-.5.4-1,.4-2.2v-7.2h2.2v7.7c0,1.5-.3,2.5-.8,3.4-.8,1.1-2.2,1.8-3.7,1.8s-2.9-.7-3.7-1.8c-.6-.9-.8-1.9-.8-3.4v-7.7h2.2v7.2h0Z"/>
  <path class="st1" d="M116.3,154.2v-3.8h.7c1.4,0,2.1.6,2.1,1.9s-.8,1.9-2.2,1.9h-.7ZM118.8,155.7c1.7-.4,2.6-1.6,2.6-3.6s-1.5-3.7-4-3.7h-3.3v12.6h2.2v-5.1h.3l3.1,5.1h2.7l-3.6-5.3h0Z"/>
  <polygon class="st1" points="129.1 150.6 129.1 153.3 133 153.3 133 155.5 129.1 155.5 129.1 158.9 133.1 158.9 133.1 161 126.9 161 126.9 148.4 133.1 148.4 133.1 150.6 129.1 150.6"/>
  <path class="st1" d="M3,173.2v-3.3h.7c1.1,0,1.7.6,1.7,1.6s-.6,1.6-1.7,1.6h-.6ZM.8,180.6h3.8c2.4,0,3.8-1.3,3.8-3.6s-.8-2.8-2.3-3.2c.9-.6,1.2-1.3,1.2-2.6s-.4-2-1-2.6c-.6-.5-1.5-.8-2.8-.8H.8v12.6h0ZM3,178.6v-3.5h.8c1.7,0,2.3.5,2.3,1.8s-.7,1.7-2.2,1.7h-1Z"/>
  <polygon class="st1" points="16.5 180.6 14.3 180.6 14.3 168 16.5 168 16.5 180.6"/>
  <path class="st1" d="M28.5,169.9c2.1,0,3.8,1.9,3.8,4.3s-1.7,4.3-3.8,4.3-3.8-1.9-3.8-4.3c0-2.4,1.7-4.3,3.8-4.3h0ZM28.5,167.7c-3.4,0-6.1,2.9-6.1,6.6s2.6,6.6,6.1,6.6,6.1-2.9,6.1-6.6-2.7-6.6-6.1-6.6h0Z"/>
  <polygon class="st1" points="42.6 178.4 46.1 178.4 46.1 180.6 40.4 180.6 40.4 168 42.6 168 42.6 178.4"/>
  <path class="st1" d="M56.7,169.9c2.1,0,3.8,1.9,3.8,4.3s-1.7,4.3-3.8,4.3-3.8-1.9-3.8-4.3,1.7-4.3,3.8-4.3h0ZM56.7,167.7c-3.4,0-6.1,2.9-6.1,6.6s2.6,6.6,6.1,6.6,6.1-2.9,6.1-6.6-2.7-6.6-6.1-6.6h0Z"/>
  <path class="st1" d="M79.5,173.8v.4c0,4.1-2.1,6.6-5.5,6.6s-6-2.7-6-6.5,2.5-6.6,6-6.6,3.8,1,4.9,3l-1.9,1.2c-.7-1.2-1.7-1.9-3-1.9-2.1,0-3.7,1.9-3.7,4.4s1.6,4.3,3.7,4.3,2.8-1.1,3-2.7h-2.7v-2.1h5.2Z"/>
  <polygon class="st1" points="87.6 180.6 85.4 180.6 85.4 168 87.6 168 87.6 180.6"/>
  <path class="st1" d="M101.2,175.5l-2.3.2,2.2,2.4c-.5.4-1,.5-1.6.5-2.2,0-3.8-1.9-3.8-4.4s1.7-4.3,3.8-4.3,3.8,1.9,3.8,4.3-.3,1.9-.9,2.7l-1.3-1.4h0ZM105.9,180.8l-1.8-2c1.1-1.4,1.6-2.8,1.6-4.5,0-3.7-2.7-6.6-6.1-6.6s-6.1,2.9-6.1,6.6,2.7,6.6,6.1,6.6,2.2-.3,3.2-.9l.9,1.2,2.2-.2h0Z"/>
  <path class="st1" d="M113.6,175.2c0,1.3,0,1.7.4,2.2.4.7,1.1,1.2,2,1.2s1.6-.5,2-1.2c.3-.5.4-1,.4-2.2v-7.2h2.2v7.7c0,1.5-.3,2.5-.8,3.4-.8,1.1-2.2,1.8-3.7,1.8s-2.9-.7-3.7-1.8c-.6-.9-.8-1.9-.8-3.4v-7.7h2.2v7.2h0Z"/>
  <polygon class="st1" points="129.2 170.1 129.2 172.9 133.1 172.9 133.1 175 129.2 175 129.2 178.4 133.2 178.4 133.2 180.6 127 180.6 127 168 133.2 168 133.2 170.1 129.2 170.1"/>
  <path class="st0" d="M79.8,63.1c16.5,0,25.9,7.1,25.9,19.1s-7.6,15.6-7.6,15.6c0,0,14.1,3.3,14.1,20s-22.4,19.6-22.4,19.6h-19.4V63.1h9.4ZM79.8,71.9v24.1s4.3,0,7.1-.3c2.9-.3,10.3-1.9,10.2-12.1-.2-10.2-7.1-11.4-12.2-11.9l-5.1.2h0ZM79.8,103.8v25.1h9.5c2.2,0,13.7-1.4,13.8-12.4.2-11-12.4-13-15.2-13-2.9,0-8.1.3-8.1.3h0Z"/>
  <path class="st0" d="M63.2,137.4h-9.4v-17.7h-31.9s-2.5,6.7-2.5,17.3h-9.1c0-19.1,10.5-52.5,39.2-72,10.8-5.6,13.7,2.4,13.7,4.8s0,67.6,0,67.6h0ZM53.9,72.8c-25.1,20.5-28.4,37.6-28.4,37.6h28.4v-37.6h0Z"/>
  <path class="st0" d="M83.6,31.3s16.8,7.1,13.7,27.7c0,0,9.5-12.7,24.9-9.5,0,0-6.8,19.2-26.9,12.9-19.2-6-14.6-28-11.7-31.1h0Z"/>
</svg>